<svg width="23" height="23" viewBox="0 0 23 23" fill="none" xmlns="http://www.w3.org/2000/svg" icon="cut-type-inside"
    class="icon">
    <path d="M15 16V18H18V16H15Z" fill="#161514"></path>
    <path d="M13 18H10V16H13V18Z" fill="#161514"></path>
    <path d="M8 18H5V15H7V16H8V18Z" fill="#161514"></path>
    <path d="M7 13H5V10H7V13Z" fill="#161514"></path>
    <path d="M7 8H5V5H8V7H7V8Z" fill="#161514"></path>
    <path d="M13.167 7H10V5H13.167V7Z" fill="#161514"></path>
    <path d="M18 7H15V5H18V7Z" fill="#161514"></path>
    <path
        d="M16.5 14C17.881 14 19 12.881 19 11.5C19 10.119 17.881 9 16.5 9C15.119 9 14 10.119 14 11.5C14 12.881 15.119 14 16.5 14Z"
        fill="#161514"></path>
    <path fill-rule="evenodd" clip-rule="evenodd" d="M0 23H23.001V0H0V23ZM2 21H21.001V2H2V21Z" fill="#161514"></path>
</svg>