<svg width="24" height="23" viewBox="0 0 24 23" fill="none" xmlns="http://www.w3.org/2000/svg" icon="cut-type-outside"
    class="icon">
    <path d="M20 0V2.001L21.0001 2.0016L21 3H23.001L23.0011 0.0006L20 0Z" fill="#161514"></path>
    <path d="M21.001 9H23.002V6H21.001V9Z" fill="#161514"></path>
    <path d="M2.001 10H0V7H2.001V10Z" fill="#161514"></path>
    <path d="M0 16H2.001V13H0V16Z" fill="#161514"></path>
    <path d="M21.0006 21.0008L20.999 20H23L23.0016 23.0008L20 23V21L21.0006 21.0008Z" fill="#161514"></path>
    <path d="M15.358 23.001H17.929V21.001H15.358V23.001Z" fill="#161514"></path>
    <path d="M12.786 23.001H10.214V21.001H12.786V23.001Z" fill="#161514"></path>
    <path d="M5.072 23.001H7.643V21.001H5.072V23.001Z" fill="#161514"></path>
    <path d="M0 23.0008V19H2V21.0008L3 21V23L0 23.0008Z" fill="#161514"></path>
    <path d="M0 0.0006V4H2V2.0016L3 2.001V0L0 0.0006Z" fill="#161514"></path>
    <path d="M17.93 2.001H15.358V0H17.93V2.001Z" fill="#161514"></path>
    <path d="M10.215 2.001H12.786V0H10.215V2.001Z" fill="#161514"></path>
    <path d="M7.644 2.001H5.072V0H7.644V2.001Z" fill="#161514"></path>
    <path fill-rule="evenodd" clip-rule="evenodd" d="M5 18V5H18V18H5ZM7 16H16V7H7V16Z" fill="#161514"></path>
    <path
        d="M21.5 17C22.881 17 24 15.881 24 14.5C24 13.119 22.881 12 21.5 12C20.119 12 19 13.119 19 14.5C19 15.881 20.119 17 21.5 17Z"
        fill="#161514"></path>
</svg>