<svg width="23" height="23" viewBox="0 0 23 23" fill="none" xmlns="http://www.w3.org/2000/svg" icon="cut-type-pocket"
    class="icon">
    <path d="M4.30916 2.87194L2.81638 4.36472L5.80194 7.35029L7.29472 5.8575L4.30916 2.87194Z" fill="#161514"></path>
    <path d="M8.81638 10.3647L10.3092 8.87193L14.2947 12.8575L12.8019 14.3503L8.81638 10.3647Z" fill="#161514"></path>
    <path d="M4.36244 15L3 16.3624L6.72488 20.0873L8.08731 18.7249L4.36244 15Z" fill="#161514"></path>
    <path d="M15 4.36244L16.3624 3L20.0873 6.72488L18.7249 8.08731L15 4.36244Z" fill="#161514"></path>
    <path d="M5.80194 8.87193L7.29472 10.3647L4.30916 13.3503L2.81638 11.8575L5.80194 8.87193Z" fill="#161514"></path>
    <path d="M13.2947 4.36472L11.8019 2.87194L8.81638 5.8575L10.3092 7.35028L13.2947 4.36472Z" fill="#161514"></path>
    <path d="M15.8164 17.3647L17.3092 15.8719L20.2947 18.8575L18.8019 20.3503L15.8164 17.3647Z" fill="#161514"></path>
    <path d="M14.2947 17.3647L12.8019 15.8719L9.81638 18.8575L11.3092 20.3503L14.2947 17.3647Z" fill="#161514"></path>
    <path d="M18.8019 9.87193L20.2947 11.3647L17.3092 14.3503L15.8164 12.8575L18.8019 9.87193Z" fill="#161514"></path>
    <path fill-rule="evenodd" clip-rule="evenodd" d="M23 0V23H0V0H23ZM21 2H2V21H21V2Z" fill="#161514"></path>
</svg>