<svg width="24" height="24" viewBox="0 0 24 24" fill="none" xmlns="http://www.w3.org/2000/svg" icon="draw" class="icon">
    <path fill-rule="evenodd" clip-rule="evenodd"
        d="M3.91602 4.38927C3.91602 5.20287 4.37908 5.90831 5.05603 6.25643L3.90746 16.785C3.00654 17.0207 2.3418 17.8402 2.3418 18.815C2.3418 19.9739 3.28122 20.9133 4.44005 20.9133C5.45164 20.9133 6.29603 20.1974 6.49428 19.2447L16.5623 17.6266C17.0568 18.7904 18.2105 19.6064 19.5547 19.6064C21.3496 19.6064 22.8047 18.1514 22.8047 16.3564C22.8047 14.5615 21.3496 13.1064 19.5547 13.1064C17.8299 13.1064 16.4189 14.45 16.3113 16.1477L6.25629 17.7637C6.05483 17.4164 5.75663 17.1322 5.39857 16.948L6.54716 6.41925C6.9918 6.30285 7.37888 6.04423 7.6569 5.69493L14.9318 7.99226C14.931 8.01513 14.9307 8.03809 14.9307 8.06114C14.9307 9.21997 15.8701 10.1594 17.0289 10.1594C18.1877 10.1594 19.1272 9.21997 19.1272 8.06114C19.1272 6.90231 18.1877 5.96289 17.0289 5.96289C16.4358 5.96289 15.9002 6.20895 15.5186 6.60456L8.10888 4.26465C8.0444 3.16383 7.13126 2.29102 6.01427 2.29102C4.85543 2.29102 3.91602 3.23043 3.91602 4.38927ZM19.5547 14.6064C18.5882 14.6064 17.8047 15.3899 17.8047 16.3564C17.8047 17.3229 18.5882 18.1064 19.5547 18.1064C20.5212 18.1064 21.3047 17.3229 21.3047 16.3564C21.3047 15.3899 20.5212 14.6064 19.5547 14.6064Z"
        fill="#2A2B2D"></path>
</svg>