<svg width="20" height="20" viewBox="0 0 20 20" fill="none" xmlns="http://www.w3.org/2000/svg"
    class="icon mode-selection-menu--mode-tab--icon" icon="mode-plan">
    <path fill-rule="evenodd" clip-rule="evenodd"
        d="M10 2C5.58172 2 2 5.58172 2 10C2 14.4183 5.58172 18 10 18C14.4183 18 18 14.4183 18 10C18 5.58172 14.4183 2 10 2ZM0 10C0 4.47715 4.47715 0 10 0C15.5228 0 20 4.47715 20 10C20 15.5228 15.5228 20 10 20C4.47715 20 0 15.5228 0 10Z"
        fill="#2A2B2D"></path>
    <path fill-rule="evenodd" clip-rule="evenodd"
        d="M8.68348 3.37846C9.10988 3.29411 9.55016 3.25 10 3.25C10.4498 3.25 10.8901 3.29411 11.3165 3.37846L11.0254 4.84995C10.6944 4.78445 10.3516 4.75 10 4.75C9.64842 4.75 9.30562 4.78445 8.97458 4.84995L8.68348 3.37846ZM13.7509 4.38738C14.4867 4.87997 15.12 5.51329 15.6126 6.24907L14.3662 7.08355C13.9827 6.5107 13.4893 6.01734 12.9165 5.63383L13.7509 4.38738ZM4.38738 6.24907C4.87997 5.51329 5.51329 4.87997 6.24907 4.38738L7.08355 5.63383C6.5107 6.01734 6.01734 6.5107 5.63383 7.08355L4.38738 6.24907ZM3.25 10C3.25 9.55016 3.29411 9.10988 3.37846 8.68348L4.84995 8.97458C4.78445 9.30562 4.75 9.64842 4.75 10C4.75 10.3516 4.78445 10.6944 4.84995 11.0254L3.37846 11.3165C3.29411 10.8901 3.25 10.4498 3.25 10ZM16.6215 8.68348C16.7059 9.10988 16.75 9.55016 16.75 10C16.75 10.4498 16.7059 10.8901 16.6215 11.3165L15.1501 11.0254C15.2155 10.6944 15.25 10.3516 15.25 10C15.25 9.64842 15.2155 9.30562 15.1501 8.97458L16.6215 8.68348ZM6.24907 15.6126C5.51329 15.12 4.87997 14.4867 4.38738 13.7509L5.63383 12.9165C6.01734 13.4893 6.5107 13.9827 7.08355 14.3662L6.24907 15.6126ZM15.6126 13.7509C15.12 14.4867 14.4867 15.12 13.7509 15.6126L12.9165 14.3662C13.4893 13.9827 13.9827 13.4893 14.3662 12.9165L15.6126 13.7509ZM10 16.75C9.55016 16.75 9.10988 16.7059 8.68348 16.6215L8.97458 15.1501C9.30562 15.2155 9.64842 15.25 10 15.25C10.3516 15.25 10.6944 15.2155 11.0254 15.1501L11.3165 16.6215C10.8901 16.7059 10.4498 16.75 10 16.75Z"
        fill="#2A2B2D"></path>
</svg>