<svg width="18" height="18" viewBox="0 0 18 18" fill="none" xmlns="http://www.w3.org/2000/svg">
    <path fill-rule="evenodd" clip-rule="evenodd"
        d="M15.9999 0H11.9998V2H15.9999V6H17.9999V2C17.9999 0.9 17.0999 0 15.9999 0ZM6.00004 2.00004H2.00004V6.00004H3.75276e-05V2.00004C3.75276e-05 0.900038 0.900038 3.75276e-05 2.00004 3.75276e-05H6.00004V2.00004ZM0 12H2V16H6V18H2C0.9 18 0 17.1 0 16V12ZM11.9998 16H15.9999V12H17.9999V16C17.9999 17.1 17.0999 18 15.9999 18H11.9998V16Z"
        fill="#161514"></path>
</svg>