<svg width="22" height="22" viewBox="0 0 22 22" fill="none" xmlns="http://www.w3.org/2000/svg">
    <path fill-rule="evenodd" clip-rule="evenodd"
        d="M21.6066 1.80762L20.1924 0.393402L17.3277 3.25809C15.6036 1.84696 13.4001 1 11 1C5.48 1 1 5.48 1 11C1 13.4001 1.84696 15.6036 3.25809 17.3277L0.393402 20.1924L1.80762 21.6066L4.67231 18.7419C6.39641 20.1531 8.5999 21 11 21C16.52 21 21 16.52 21 11C21 8.5999 20.1531 6.39641 18.7419 4.67231L21.6066 1.80762ZM15.9063 4.67953C14.5517 3.62675 12.8494 3 11 3C6.58 3 3 6.58 3 11C3 12.8494 3.62675 14.5517 4.67953 15.9063L15.9063 4.67953ZM6.09374 17.3205L17.3205 6.09374C18.3733 7.4483 19 9.15062 19 11C19 15.42 15.42 19 11 19C9.15062 19 7.4483 18.3733 6.09374 17.3205Z"
        fill="#161514"></path>
</svg>