<?xml version="1.0" encoding="UTF-8" standalone="no"?>
<!DOCTYPE svg PUBLIC "-//W3C//DTD SVG 1.1//EN" "http://www.w3.org/Graphics/SVG/1.1/DTD/svg11.dtd">
<svg width="100%" height="100%" viewBox="0 0 16 16" version="1.1" xmlns="http://www.w3.org/2000/svg" xmlns:xlink="http://www.w3.org/1999/xlink" xml:space="preserve" xmlns:serif="http://www.serif.com/" style="fill-rule:evenodd;clip-rule:evenodd;stroke-linecap:round;">
    <path d="M8,1L8,4M8,12L8,15M1,8L4,8M12,8L15,8" style="fill:none;fill-rule:nonzero;stroke:black;stroke-width:1px;"/>
    <path d="M1.014,1.031L1.014,3.536" style="fill:none;stroke:black;stroke-width:1.5px;stroke-linejoin:round;stroke-miterlimit:1.5;"/>
    <g transform="matrix(1,0,0,1,6.98572,5.71671)">
        <path d="M1.014,1.031L1.014,3.536" style="fill:none;stroke:black;stroke-width:1.5px;stroke-linejoin:round;stroke-miterlimit:1.5;"/>
    </g>
    <g transform="matrix(1.25019,0,0,1,-0.254775,0)">
        <path d="M1.018,1.027L3.018,1.027" style="fill:none;stroke:black;stroke-width:1.33px;stroke-linejoin:round;stroke-miterlimit:1.5;"/>
    </g>
    <g transform="matrix(6.12323e-17,1,-1,6.12323e-17,16.0274,0.0130718)">
        <path d="M1.014,1.031L1.014,3.536" style="fill:none;stroke:black;stroke-width:1.5px;stroke-linejoin:round;stroke-miterlimit:1.5;"/>
    </g>
    <g transform="matrix(6.12323e-17,1,-1,6.12323e-17,10.2833,6.98572)">
        <path d="M1.014,1.031L1.014,3.536" style="fill:none;stroke:black;stroke-width:1.5px;stroke-linejoin:round;stroke-miterlimit:1.5;"/>
    </g>
    <g transform="matrix(7.65521e-17,1.25019,-1,6.12323e-17,16.0274,-0.241704)">
        <path d="M1.018,1.027L3.018,1.027" style="fill:none;stroke:black;stroke-width:1.33px;stroke-linejoin:round;stroke-miterlimit:1.5;"/>
    </g>
    <g transform="matrix(-1,-1.22465e-16,1.22465e-16,-1,16,16.0274)">
        <path d="M1.014,1.031L1.014,3.536" style="fill:none;stroke:black;stroke-width:1.5px;stroke-linejoin:round;stroke-miterlimit:1.5;"/>
    </g>
    <g transform="matrix(-1.25019,-1.53104e-16,1.22465e-16,-1,16.2548,16.0274)">
        <path d="M1.018,1.027L3.018,1.027" style="fill:none;stroke:black;stroke-width:1.33px;stroke-linejoin:round;stroke-miterlimit:1.5;"/>
    </g>
    <g transform="matrix(6.12323e-17,-1,1,6.12323e-17,-0.027356,16.0143)">
        <path d="M1.014,1.031L1.014,3.536" style="fill:none;stroke:black;stroke-width:1.5px;stroke-linejoin:round;stroke-miterlimit:1.5;"/>
    </g>
    <g transform="matrix(7.65521e-17,-1.25019,1,6.12323e-17,-0.027356,16.2691)">
        <path d="M1.018,1.027L3.018,1.027" style="fill:none;stroke:black;stroke-width:1.33px;stroke-linejoin:round;stroke-miterlimit:1.5;"/>
    </g>
</svg>
