<svg width="16" height="16" viewBox="0 0 16 16" fill="none" xmlns="http://www.w3.org/2000/svg">
    <path
        d="M10.5 2H12C12.5523 2 13 2.44772 13 3V13C13 13.5523 12.5523 14 12 14H4C3.44772 14 3 13.5523 3 13V3C3 2.44772 3.44772 2 4 2H5.5"
        stroke="currentColor" stroke-width="1.2" stroke-linecap="round" stroke-linejoin="round" />
    <path
        d="M6 1H10C10.2761 1 10.5 1.22386 10.5 1.5V2.5C10.5 2.77614 10.2761 3 10 3H6C5.72386 3 5.5 2.77614 5.5 2.5V1.5C5.5 1.22386 5.72386 1 6 1Z"
        stroke="currentColor" stroke-width="1.2" stroke-linecap="round" stroke-linejoin="round" />
    <path d="M6 6H10" stroke="currentColor" stroke-width="1.2" stroke-linecap="round" />
    <path d="M6 8H10" stroke="currentColor" stroke-width="1.2" stroke-linecap="round" />
    <path d="M6 10H8" stroke="currentColor" stroke-width="1.2" stroke-linecap="round" />
</svg>