<svg width="36" height="36" viewBox="0 0 36 36" fill="none" xmlns="http://www.w3.org/2000/svg" icon="shaper-icon"
    data-cy="application-menu-launcher">
    <path d="M23.4761 21.9086L12.4704 21.8963L17.9959 12.2771L23.4761 21.9086Z" fill="currentColor"></path>
    <path fill-rule="evenodd" clip-rule="evenodd" fill="currentColor"
        d="M7.99632 3.03583C10.956 1.05729 14.4358 0.000813822 17.9959 0C22.7685 0.00326651 27.3447 1.90004 30.7202 5.27398C34.0957 8.64792 35.9946 13.2233 36 17.9959C36.0008 21.5559 34.9459 25.0363 32.9687 27.9968C30.9916 30.9574 28.1809 33.2651 24.8921 34.6283C21.6033 35.9914 17.9842 36.3487 14.4924 35.6549C11.0006 34.9612 7.79292 33.2476 5.27499 30.7308C2.75707 28.2141 1.04201 25.0072 0.346676 21.5157C-0.348656 18.0242 0.00697691 14.4049 1.3686 11.1155C2.73023 7.82612 5.03669 5.01437 7.99632 3.03583ZM10.9605 23.7189H25.0149C25.7513 23.7189 26.2944 22.9618 25.7554 22.0238L18.971 10.2075C18.432 9.26537 17.5598 9.26537 17.0249 10.2075L10.2363 22.0238C9.70561 22.9577 10.261 23.7189 10.9605 23.7189Z">
    </path>
</svg>